<svg width="146" height="149" viewBox="0 0 146 149" fill="none" xmlns="http://www.w3.org/2000/svg">
<path d="M115.233 71.2918H118.254C123.902 71.2918 126.723 71.2918 128.825 72.5313C130.203 73.3432 131.346 74.5108 132.142 75.9168C133.356 78.0628 133.356 80.9427 133.356 86.7085C133.356 92.4743 133.356 95.3542 132.142 97.5002C131.346 98.9062 130.203 100.074 128.825 100.886C126.723 102.125 123.902 102.125 118.254 102.125H115.233M30.662 71.2918H27.6416C21.9934 71.2918 19.1724 71.2918 17.0702 72.5313C15.6928 73.3432 14.549 74.5108 13.7538 75.9168C12.5396 78.0628 12.5396 80.9427 12.5396 86.7085C12.5396 92.4743 12.5396 95.3542 13.7538 97.5002C14.549 98.9062 15.6928 100.074 17.0702 100.886C19.1724 102.125 21.9934 102.125 27.6416 102.125H30.662M72.9477 31.2085C75.3509 31.2085 77.6557 30.2339 79.355 28.4992C81.0543 26.7645 82.0089 24.4117 82.0089 21.9585C82.0089 19.5052 81.0543 17.1525 79.355 15.4178C77.6557 13.683 75.3509 12.7085 72.9477 12.7085C70.5445 12.7085 68.2398 13.683 66.5405 15.4178C64.8411 17.1525 63.8865 19.5052 63.8865 21.9585C63.8865 24.4117 64.8411 26.7645 66.5405 28.4992C68.2398 30.2339 70.5445 31.2085 72.9477 31.2085ZM72.9477 31.2085V49.7085M54.8253 74.3752V80.5418M91.0702 74.3752V80.5418M66.9069 49.7085H78.9885C96.072 49.7085 104.62 49.7085 109.924 55.129C115.233 60.5433 115.233 69.2692 115.233 86.7085C115.233 104.148 115.233 112.874 109.924 118.288C104.62 123.708 96.072 123.708 78.9885 123.708H72.9477C72.9477 123.708 69.9273 136.042 48.7844 136.042C48.7844 136.042 54.8253 129.82 54.8253 123.604C45.4439 123.314 39.844 122.247 35.9719 118.288C30.662 112.874 30.662 104.148 30.662 86.7085C30.662 69.2692 30.662 60.5433 35.9719 55.129C41.2757 49.7085 49.8235 49.7085 66.9069 49.7085Z" stroke="white" stroke-width="1.5" stroke-linecap="round" stroke-linejoin="round"/>
<path d="M60.866 102.125C60.866 102.125 64.8952 105.208 72.9476 105.208C81 105.208 85.0292 102.125 85.0292 102.125" stroke="white" stroke-width="1.5" stroke-linecap="round" stroke-linejoin="round"/>
</svg>
