<svg width="115" height="115" viewBox="0 0 115 115" fill="none" xmlns="http://www.w3.org/2000/svg">
<g clip-path="url(#clip0_1_1620)">
<path d="M43.208 14.625C46.731 14.625 50.1749 15.6697 53.1041 17.6269C56.0334 19.5842 58.3164 22.3661 59.6646 25.621C61.0128 28.8758 61.3655 32.4573 60.6782 35.9125C59.9909 39.3678 58.2945 42.5417 55.8033 45.0328C53.3122 47.524 50.1383 49.2204 46.6831 49.9077C43.2278 50.595 39.6463 50.2423 36.3915 48.8941C33.1367 47.5459 30.3547 45.2628 28.3975 42.3336C26.4402 39.4043 25.3955 35.9605 25.3955 32.4375C25.3955 27.7133 27.2722 23.1827 30.6127 19.8422C33.9532 16.5017 38.4838 14.625 43.208 14.625ZM43.208 7.5C38.2758 7.5 33.4544 8.96256 29.3535 11.7027C25.2525 14.4429 22.0562 18.3376 20.1688 22.8943C18.2813 27.4511 17.7875 32.4652 18.7497 37.3026C19.7119 42.14 22.087 46.5834 25.5745 50.071C29.0621 53.5585 33.5055 55.9336 38.3429 56.8958C43.1803 57.8581 48.1944 57.3642 52.7512 55.4767C57.3079 53.5893 61.2026 50.393 63.9428 46.292C66.6829 42.1911 68.1455 37.3697 68.1455 32.4375C68.1455 25.8237 65.5182 19.4807 60.8415 14.804C56.1648 10.1273 49.8218 7.5 43.208 7.5ZM78.833 107.25H71.708V89.4375C71.708 84.7133 69.8313 80.1827 66.4908 76.8422C63.1504 73.5017 58.6197 71.625 53.8955 71.625H32.5205C27.7963 71.625 23.2657 73.5017 19.9252 76.8422C16.5847 80.1827 14.708 84.7133 14.708 89.4375V107.25H7.58301V89.4375C7.58301 82.8237 10.2103 76.4807 14.887 71.804C19.5637 67.1273 25.9067 64.5 32.5205 64.5H53.8955C60.5093 64.5 66.8523 67.1273 71.529 71.804C76.2057 76.4807 78.833 82.8237 78.833 89.4375V107.25ZM78.833 14.625H114.458V21.75H78.833V14.625ZM78.833 32.4375H114.458V39.5625H78.833V32.4375ZM78.833 50.25H103.771V57.375H78.833V50.25Z" fill="white"/>
</g>
<defs>
<clipPath id="clip0_1_1620">
<rect width="114" height="114" fill="white" transform="translate(0.458008 0.375)"/>
</clipPath>
</defs>
</svg>
