<svg width="59" height="59" viewBox="0 0 59 59" fill="none" xmlns="http://www.w3.org/2000/svg">
<g clip-path="url(#clip0_1_1562)">
<path d="M2.05957 25.9209V54.3771C2.05957 56.5522 3.78145 58.274 5.95645 58.274H52.5377C54.7127 58.274 56.4346 56.5522 56.4346 54.3771V25.9209H2.05957Z" fill="#FFCE31"/>
<path d="M56.4346 22.0242C56.4346 19.8492 54.7127 18.1273 52.5377 18.1273H5.95645C3.78145 18.0367 2.05957 19.8492 2.05957 22.0242V25.921H56.4346V22.0242Z" fill="#FF8736"/>
<path d="M11.4846 23.8369C14.4376 23.8369 16.8314 22.8226 16.8314 21.5713C16.8314 20.32 14.4376 19.3057 11.4846 19.3057C8.53157 19.3057 6.1377 20.32 6.1377 21.5713C6.1377 22.8226 8.53157 23.8369 11.4846 23.8369Z" fill="#3E4347"/>
<path d="M47.0095 23.8369C49.9625 23.8369 52.3563 22.8226 52.3563 21.5713C52.3563 20.32 49.9625 19.3057 47.0095 19.3057C44.0565 19.3057 41.6626 20.32 41.6626 21.5713C41.6626 22.8226 44.0565 23.8369 47.0095 23.8369Z" fill="#3E4347"/>
<path d="M29.247 0.274414C17.5564 0.274414 8.04077 9.88066 8.04077 21.5713C8.04077 22.2963 9.49077 22.84 11.4845 22.84V21.5713C12.2095 11.6025 19.9126 3.71816 29.247 3.71816C38.672 3.71816 46.3751 11.6025 47.0095 21.5713V22.84C49.0033 22.84 50.4533 22.2963 50.4533 21.5713C50.4533 9.88066 40.9376 0.274414 29.247 0.274414Z" fill="#DFE9EF"/>
<path d="M47.0096 21.5711C46.3752 11.693 38.6721 3.80859 29.2471 3.80859C19.8221 3.80859 12.119 11.693 11.4846 21.6617V22.9305C13.4784 22.9305 15.2909 22.3867 15.2909 21.6617C15.2002 15.1367 20.6377 7.52422 29.2471 7.52422C37.8565 7.52422 43.294 15.1367 43.294 21.5711C43.294 22.2961 45.1065 22.8398 47.1002 22.8398L47.0096 21.5711Z" fill="#B0BDC6"/>
<path d="M33.4159 51.3865L31.694 40.2396C32.6909 39.5146 33.4159 38.2459 33.4159 36.8865C33.4159 34.6209 31.6034 32.7178 29.2471 32.7178C26.8909 32.7178 25.0784 34.6209 25.0784 36.8865C25.0784 38.2459 25.7127 39.5146 26.8002 40.2396L25.0784 51.3865H33.4159Z" fill="#3E4347"/>
</g>
<defs>
<clipPath id="clip0_1_1562">
<rect width="58" height="58" fill="white" transform="translate(0.24707 0.274414)"/>
</clipPath>
</defs>
</svg>
