<svg width="26" height="25" viewBox="0 0 26 25" fill="none" xmlns="http://www.w3.org/2000/svg">
<path d="M12.7752 0.446777C11.1685 0.446777 9.57745 0.763249 8.09301 1.37812C6.60857 1.993 5.25978 2.89423 4.12364 4.03038C1.8291 6.32491 0.540039 9.43698 0.540039 12.6819C0.540039 18.0899 4.05153 22.6781 8.9089 24.3054C9.52065 24.4032 9.71642 24.0239 9.71642 23.6936V21.6259C6.32727 22.36 5.6054 19.9863 5.6054 19.9863C5.04258 18.5671 4.2473 18.1878 4.2473 18.1878C3.1339 17.4292 4.33294 17.4537 4.33294 17.4537C5.55646 17.5393 6.20492 18.7139 6.20492 18.7139C7.26938 20.5736 9.06795 20.023 9.76536 19.7294C9.87547 18.9341 10.1936 18.3958 10.5362 18.0899C7.81996 17.784 4.96917 16.7318 4.96917 12.0702C4.96917 10.7121 5.43411 9.62315 6.22939 8.75446C6.10704 8.44858 5.67881 7.17612 6.35174 5.52437C6.35174 5.52437 7.3795 5.19402 9.71642 6.77236C10.683 6.50319 11.7352 6.3686 12.7752 6.3686C13.8152 6.3686 14.8674 6.50319 15.834 6.77236C18.1709 5.19402 19.1987 5.52437 19.1987 5.52437C19.8716 7.17612 19.4434 8.44858 19.321 8.75446C20.1163 9.62315 20.5812 10.7121 20.5812 12.0702C20.5812 16.744 17.7182 17.7718 14.9898 18.0777C15.4302 18.4569 15.834 19.2033 15.834 20.3412V23.6936C15.834 24.0239 16.0298 24.4155 16.6538 24.3054C21.5111 22.6658 25.0104 18.0899 25.0104 12.6819C25.0104 11.0752 24.6939 9.48419 24.079 7.99975C23.4642 6.51531 22.5629 5.16652 21.4268 4.03038C20.2906 2.89423 18.9418 1.993 17.4574 1.37812C15.973 0.763249 14.382 0.446777 12.7752 0.446777Z" fill="#363636"/>
</svg>
