<svg width="63" height="63" viewBox="0 0 63 63" fill="none" xmlns="http://www.w3.org/2000/svg">
<path d="M44.7563 53.235C42.1838 55.7288 39.3751 55.335 36.6713 54.1537C33.8101 52.9462 31.1851 52.8937 28.1663 54.1537C24.3863 55.7812 22.3913 55.3088 20.1338 53.235C7.32381 40.0312 9.21381 19.9237 23.7563 19.1888C27.3001 19.3725 29.7676 21.1312 31.8413 21.2887C34.9388 20.6587 37.9051 18.8475 41.2126 19.0837C45.1763 19.3988 48.1688 20.9737 50.1376 23.8087C41.9476 28.7175 43.8901 39.5063 51.3976 42.525C49.9013 46.4625 47.9588 50.3738 44.7301 53.2613L44.7563 53.235ZM31.5788 19.0312C31.1851 13.1775 35.9363 8.3475 41.3963 7.875C42.1576 14.6475 35.2538 19.6875 31.5788 19.0312Z" fill="#363636"/>
</svg>
