<svg width="26" height="25" viewBox="0 0 26 25" fill="none" xmlns="http://www.w3.org/2000/svg">
<path d="M7.90768 0.446777H18.1852C22.1005 0.446777 25.2816 3.62792 25.2816 7.54318V17.8207C25.2816 19.7028 24.534 21.5078 23.2031 22.8386C21.8723 24.1695 20.0673 24.9171 18.1852 24.9171H7.90768C3.99242 24.9171 0.811279 21.736 0.811279 17.8207V7.54318C0.811279 5.66109 1.55893 3.8561 2.88977 2.52526C4.2206 1.19443 6.0256 0.446777 7.90768 0.446777ZM7.66297 2.89381C6.49479 2.89381 5.37444 3.35787 4.54841 4.18391C3.72237 5.00994 3.25831 6.13028 3.25831 7.29847V18.0654C3.25831 20.5002 5.22818 22.4701 7.66297 22.4701H18.4299C19.5981 22.4701 20.7185 22.006 21.5445 21.18C22.3705 20.354 22.8346 19.2336 22.8346 18.0654V7.29847C22.8346 4.86367 20.8647 2.89381 18.4299 2.89381H7.66297ZM19.4699 4.72909C19.8755 4.72909 20.2645 4.89022 20.5514 5.17704C20.8382 5.46385 20.9993 5.85286 20.9993 6.25848C20.9993 6.6641 20.8382 7.05311 20.5514 7.33993C20.2645 7.62675 19.8755 7.78788 19.4699 7.78788C19.0643 7.78788 18.6753 7.62675 18.3885 7.33993C18.1016 7.05311 17.9405 6.6641 17.9405 6.25848C17.9405 5.85286 18.1016 5.46385 18.3885 5.17704C18.6753 4.89022 19.0643 4.72909 19.4699 4.72909ZM13.0464 6.56436C14.6689 6.56436 16.225 7.20889 17.3722 8.35616C18.5195 9.50343 19.164 11.0595 19.164 12.6819C19.164 14.3044 18.5195 15.8605 17.3722 17.0077C16.225 18.155 14.6689 18.7995 13.0464 18.7995C11.424 18.7995 9.86793 18.155 8.72066 17.0077C7.57339 15.8605 6.92886 14.3044 6.92886 12.6819C6.92886 11.0595 7.57339 9.50343 8.72066 8.35616C9.86793 7.20889 11.424 6.56436 13.0464 6.56436ZM13.0464 9.0114C12.073 9.0114 11.1393 9.39811 10.451 10.0865C9.76262 10.7748 9.3759 11.7085 9.3759 12.6819C9.3759 13.6554 9.76262 14.5891 10.451 15.2774C11.1393 15.9658 12.073 16.3525 13.0464 16.3525C14.0199 16.3525 14.9536 15.9658 15.6419 15.2774C16.3303 14.5891 16.717 13.6554 16.717 12.6819C16.717 11.7085 16.3303 10.7748 15.6419 10.0865C14.9536 9.39811 14.0199 9.0114 13.0464 9.0114Z" fill="#363636"/>
</svg>
