<svg width="908" height="824" viewBox="0 0 908 824" fill="none" xmlns="http://www.w3.org/2000/svg" xmlns:xlink="http://www.w3.org/1999/xlink">
	<rect opacity="0.7" y="90" width="341.677" height="643.578" fill="url(#pattern0_1_1499)" />
	<rect x="1.63013" y="91.6299" width="289.512" height="586.849" fill="url(#pattern1_1_1499)" />
	<rect x="14.9973" y="103.367" width="260.822" height="561.582" fill="url(#pattern2_1_1499)" />
	<rect opacity="0.7" x="566" y="90" width="341.677" height="643.578" fill="url(#pattern3_1_1499)" />
	<rect x="567.63" y="91.6299" width="289.512" height="586.849" fill="url(#pattern4_1_1499)" />
	<rect x="580.997" y="103.367" width="260.822" height="561.582" fill="url(#pattern5_1_1499)" />
	<rect opacity="0.7" x="241" width="437" height="823.128" fill="url(#pattern6_1_1499)" />
	<rect x="243.085" y="2.08496" width="370.282" height="750.572" fill="url(#pattern7_1_1499)" />
	<rect x="260.181" y="17.0967" width="333.588" height="718.256" fill="url(#pattern8_1_1499)" />
	<defs>
		<pattern id="pattern0_1_1499" patternContentUnits="objectBoundingBox" width="1" height="1">
			<use xlink:href="#image0_1_1499" transform="scale(0.000954198 0.000506586)" />
		</pattern>
		<pattern id="pattern1_1_1499" patternContentUnits="objectBoundingBox" width="1" height="1">
			<use xlink:href="#image1_1_1499" transform="scale(0.00112613 0.000555556)" />
		</pattern>
		<pattern id="pattern2_1_1499" patternContentUnits="objectBoundingBox" width="1" height="1">
			<use xlink:href="#image2_1_1499" transform="scale(0.000625 0.000290276)" />
		</pattern>
		<pattern id="pattern3_1_1499" patternContentUnits="objectBoundingBox" width="1" height="1">
			<use xlink:href="#image0_1_1499" transform="scale(0.000954198 0.000506586)" />
		</pattern>
		<pattern id="pattern4_1_1499" patternContentUnits="objectBoundingBox" width="1" height="1">
			<use xlink:href="#image1_1_1499" transform="scale(0.00112613 0.000555556)" />
		</pattern>
		<pattern id="pattern5_1_1499" patternContentUnits="objectBoundingBox" width="1" height="1">
			<use xlink:href="#image3_1_1499" transform="scale(0.000625 0.000290276)" />
		</pattern>
		<pattern id="pattern6_1_1499" patternContentUnits="objectBoundingBox" width="1" height="1">
			<use xlink:href="#image0_1_1499" transform="scale(0.000954198 0.000506586)" />
		</pattern>
		<pattern id="pattern7_1_1499" patternContentUnits="objectBoundingBox" width="1" height="1">
			<use xlink:href="#image1_1_1499" transform="scale(0.00112613 0.000555556)" />
		</pattern>
		<pattern id="pattern8_1_1499" patternContentUnits="objectBoundingBox" width="1" height="1">
			<use xlink:href="#image4_1_1499" transform="scale(0.000625 0.000290276)" />
		</pattern>
                </defs>
                </svg>