<svg width="50" height="56" viewBox="0 0 50 56" fill="none" xmlns="http://www.w3.org/2000/svg">
<g clip-path="url(#clip0_1_1523)">
<path d="M23.3502 26.3506L0.207031 50.5977C0.466927 51.5187 0.933967 52.3681 1.57245 53.081C2.21093 53.7938 3.00396 54.3513 3.8909 54.7107C4.77784 55.0701 5.73521 55.222 6.68984 55.1547C7.64447 55.0874 8.57108 54.8027 9.39883 54.3225L35.4393 39.4916L23.3502 26.3506Z" fill="#EA4335"/>
<path d="M46.7521 22.2293L35.4913 15.7793L22.8159 26.9023L35.5429 39.457L46.7179 33.0762C47.7078 32.5578 48.537 31.7784 49.1156 30.8223C49.6942 29.8663 50 28.7701 50 27.6526C50 26.5352 49.6942 25.439 49.1156 24.483C48.537 23.5269 47.7078 22.7475 46.7179 22.2291L46.7521 22.2293Z" fill="#FBBC04"/>
<path d="M0.207092 4.58691C0.0672857 5.10409 -0.00234857 5.63771 6.04228e-05 6.17344V49.0107C0.00144091 49.5463 0.0710108 50.0795 0.207092 50.5975L24.1436 26.9713L0.207092 4.58691Z" fill="#4285F4"/>
<path d="M23.5227 27.5926L35.491 15.7795L9.48516 0.879504C8.50669 0.306497 7.39385 0.00303236 6.25996 1.19786e-05C3.44609 -0.00545677 0.972266 1.86212 0.207031 4.57013L23.5227 27.5926Z" fill="#34A853"/>
</g>
<defs>
<clipPath id="clip0_1_1523">
<rect width="50" height="55.2734" fill="white"/>
</clipPath>
</defs>
</svg>
