<svg width="452" height="370" viewBox="0 0 452 370" fill="none" xmlns="http://www.w3.org/2000/svg">
<path d="M41.0833 184.875C18.4875 184.875 0 166.387 0 143.792V41.0833C0 18.4875 18.4875 0 41.0833 0H205.417C228.012 0 246.5 18.4875 246.5 41.0833V143.792C246.5 166.387 228.012 184.875 205.417 184.875H164.333V246.5L102.708 184.875H41.0833ZM410.833 308.125C433.429 308.125 451.917 289.637 451.917 267.042V164.333C451.917 141.737 433.429 123.25 410.833 123.25H287.583V143.792C287.583 188.983 250.608 225.958 205.417 225.958V267.042C205.417 289.637 223.904 308.125 246.5 308.125H287.583V369.75L349.208 308.125H410.833Z" fill="url(#paint0_linear_1_1613)"/>
<defs>
<linearGradient id="paint0_linear_1_1613" x1="225.958" y1="0" x2="225.958" y2="369.75" gradientUnits="userSpaceOnUse">
<stop stop-color="#0000FF"/>
<stop offset="1" stop-color="#000099"/>
</linearGradient>
</defs>
</svg>
