<svg width="73" height="73" viewBox="0 0 73 73" fill="none" xmlns="http://www.w3.org/2000/svg">
<path d="M36.749 64.2744C52.213 64.2744 64.749 51.7384 64.749 36.2744C64.749 20.8104 52.213 8.27441 36.749 8.27441C21.2851 8.27441 8.74902 20.8104 8.74902 36.2744C8.74902 51.7384 21.2851 64.2744 36.749 64.2744Z" fill="#D22F27"/>
<path d="M36.749 54.2744C26.8079 54.2744 18.749 46.2155 18.749 36.2744C18.749 26.3333 26.8079 18.2744 36.749 18.2744C46.6901 18.2744 54.749 26.3333 54.749 36.2744C54.749 46.2155 46.6901 54.2744 36.749 54.2744Z" fill="#EA5A47"/>
<path d="M54.874 36.2744C54.874 34.1564 54.511 32.1224 53.843 30.2324C51.354 23.1924 44.641 18.1494 36.749 18.1494" stroke="white" stroke-width="10" stroke-linecap="round" stroke-linejoin="round"/>
<path d="M36.749 46.2744C42.2719 46.2744 46.749 41.7973 46.749 36.2744C46.749 30.7516 42.2719 26.2744 36.749 26.2744C31.2262 26.2744 26.749 30.7516 26.749 36.2744C26.749 41.7973 31.2262 46.2744 36.749 46.2744Z" fill="#F1B31C"/>
<path d="M36.749 41.2744C39.5104 41.2744 41.749 39.0358 41.749 36.2744C41.749 33.513 39.5104 31.2744 36.749 31.2744C33.9876 31.2744 31.749 33.513 31.749 36.2744C31.749 39.0358 33.9876 41.2744 36.749 41.2744Z" fill="#FCEA2B"/>
<path d="M36.749 64.2744C52.213 64.2744 64.749 51.7384 64.749 36.2744C64.749 20.8104 52.213 8.27441 36.749 8.27441C21.2851 8.27441 8.74902 20.8104 8.74902 36.2744C8.74902 51.7384 21.2851 64.2744 36.749 64.2744Z" stroke="black" stroke-width="2"/>
</svg>
