<svg width="27" height="22" viewBox="0 0 27 22" fill="none" xmlns="http://www.w3.org/2000/svg">
<path d="M26.48 3.34108C25.5379 3.76931 24.5224 4.05072 23.4702 4.1853C24.5469 3.53684 25.3788 2.50909 25.7704 1.27333C24.7548 1.88509 23.6292 2.31332 22.4424 2.55803C21.4758 1.5058 20.1177 0.894043 18.5761 0.894043C15.7008 0.894043 13.3517 3.2432 13.3517 6.14293C13.3517 6.55893 13.4006 6.96269 13.4863 7.34198C9.13054 7.12175 5.25199 5.02953 2.67037 1.86062C2.21767 2.63144 1.96073 3.53684 1.96073 4.49118C1.96073 6.31422 2.87837 7.92927 4.29765 8.8469C3.42895 8.8469 2.62143 8.6022 1.91179 8.23515V8.27185C1.91179 10.8168 3.72259 12.9457 6.12069 13.4229C5.3509 13.6344 4.54239 13.6638 3.7593 13.5085C4.09161 14.5515 4.74244 15.4642 5.62029 16.1182C6.49814 16.7722 7.55887 17.1346 8.65337 17.1546C6.79811 18.6234 4.49831 19.4174 2.13202 19.4059C1.71602 19.4059 1.30003 19.3814 0.884033 19.3324C3.20872 20.8251 5.97386 21.6938 8.93477 21.6938C18.5761 21.6938 23.8739 13.692 23.8739 6.75469C23.8739 6.52222 23.8739 6.30199 23.8617 6.06952C24.8894 5.33541 25.7704 4.40554 26.48 3.34108Z" fill="#363636"/>
</svg>
